<svg xmlns="http://www.w3.org/2000/svg" viewBox="0 0 1440 237.8">
  <g id="logo" fill="#333333">
    <path d="M1389.9 78.4c7.1 0 14.2 1.3 20.8 4.1a45.3 45.3 0 0 1 25.8 27.3c2.5 6.6 3.5 13.7 3.5 21.8s-1 15.7-3.5 22.3a45.9 45.9 0 0 1-25.8 27.3 55.2 55.2 0 0 1-41.5 0 43.6 43.6 0 0 1-15.7-10.6 40 40 0 0 1-10.1-16.7 63.3 63.3 0 0 1-3.6-22.3c0-8.1 1-15.2 3.6-21.8a39.4 39.4 0 0 1 10.1-16.7c4-4.6 9.6-8.1 15.7-10.6a54.2 54.2 0 0 1 20.7-4.1zm0 89.6c9.1 0 16.2-3 20.8-9.1a47 47 0 0 0 7.1-27.3c0-11.1-2.5-20.3-7.1-26.8-4.6-6.1-11.6-9.1-20.8-9.1-9.6 0-16.7 3-21.3 9.1a46.5 46.5 0 0 0-6.6 26.8 47 47 0 0 0 6.6 27.3c4.6 6.1 11.6 9.1 21.3 9.1zm0 0"/>
    <path d="M1291.1 131.1c7.1 0 12.1-2 15.2-5.6 3.5-3 5.1-7.6 5.1-13.2s-1.5-10.1-5.1-13.7c-3-3-8.1-5.1-15.2-5.1-6.6 0-11.6 2-15.2 5.1a18.5 18.5 0 0 0-5.1 13.7 19.8 19.8 0 0 0 5 13.2c1.9 1.8 4.1 3.2 6.6 4.1 2.9 1 5.8 1.5 8.7 1.5zm30.4 57.7c0-2.5-.5-4.6-2-5.6-1-1.5-3-2.5-5.1-3.5l-8.1-1.5c-3-.5-6.1-.5-9.6-1-3.4.1-6.8-.1-10.1-.5-3.4-.1-6.8-.4-10.1-1a49.6 49.6 0 0 0-7.6 6.1 13 13 0 0 0-1.5 14.2 20 20 0 0 0 4.6 4.6c2.8 1.2 5.7 2.2 8.6 3 4 .6 8.1 1 12.2 1 9.6 0 16.7-1.5 21.8-4.6 4.4-3.1 6.9-6.7 6.9-11.2zM1343.3 84v8.1c0 2.5-1.5 4.1-4.6 5.1l-10.6 1.5c2 4.1 2.5 8.1 2.5 13.2a31 31 0 0 1-3 13.7 26.7 26.7 0 0 1-8.1 10.6 49.6 49.6 0 0 1-40.6 7.6c-1.7.9-3.2 2.1-4.6 3.5-1 1.5-1.5 2.5-1.5 4 0 2.5 1 4.1 3 5.1 2.4 1.2 5 2.1 7.6 2.5 3.5 0 7.1.5 11.1.5 4.1.5 8.6.5 12.7 1 4.1 0 8.6 1 12.7 1.5 4.1 1 7.6 2 10.6 4.1 3.3 1.5 6.2 4 8.1 7.1 2 3 3 7.1 3 11.6.1 4.6-1.1 9.2-3.5 13.2-2 4.6-5.6 8.1-9.6 11.6a65.2 65.2 0 0 1-36.5 10.6c-7.6 0-14.2-.5-19.7-2a48.7 48.7 0 0 1-14.7-6.1 26.1 26.1 0 0 1-8.1-8.6 21 21 0 0 1-3-10.6c0-4.6 1.5-9.1 4.6-12.1a28 28 0 0 1 12.7-8.1c-3-1.5-5.1-3.5-7.1-5.6a18 18 0 0 1-2.5-9.6c0-3 1.5-6.1 3.5-9.6 2.6-3.6 6.1-6.4 10.1-8.1-5.1-3-9.1-6.6-12.1-11.6a29 29 0 0 1-4.6-16.2c0-4.9 1-9.7 3-14.2 2-4.1 4.6-7.6 8.1-10.1 3.7-3.1 8-5.5 12.7-7.1a59 59 0 0 1 16.2-2c9.1 0 16.7 1.5 23.3 5.6l28.9-.1zm0 0M1197 78.4c7.1 0 14.2 1.3 20.8 4.1a43.6 43.6 0 0 1 15.7 10.6 40 40 0 0 1 10.1 16.7c2.5 6.6 3.5 13.7 3.5 21.8s-1 15.7-3.5 22.3a39.4 39.4 0 0 1-10.1 16.7 42.4 42.4 0 0 1-15.7 10.6 55.2 55.2 0 0 1-41.5 0 43.6 43.6 0 0 1-15.7-10.6 40 40 0 0 1-10.1-16.7 63.3 63.3 0 0 1-3.5-22.3c0-8.1 1-15.2 3.5-21.8a39.4 39.4 0 0 1 10.1-16.7c4.1-4.6 9.6-8.1 15.7-10.6a53.8 53.8 0 0 1 20.7-4.1zm0 89.6c9.6 0 16.2-3 20.8-9.1a47 47 0 0 0 7.1-27.3c0-11.1-2.5-20.3-7.1-26.8-4.6-6.1-11.1-9.1-20.8-9.1-9.1 0-16.2 3-20.8 9.1a43 43 0 0 0-7.1 26.8c0 11.6 2 20.8 7.1 27.3 4.6 6.1 11.7 9.1 20.8 9.1zm0 0M1150.4 163.5v20.3h-84.6V37.4h23.8v126.1h60.8zm0 0"/>
  </g>
  <g id="company" fill="#333333">
    <path d="M1058.7 78.4l-56.2 132.1c-1 2.5-2 4.1-3.5 4.6-1 1-3.5 1.5-6.1 1.5h-23.8l20.3-42.5-42-95.7h27.8c2.5 0 4.6.5 5.6 1.5 1.4 1 2.5 2.4 3 4.1l17.2 45.1c1.6 4.1 2.9 8.4 4.1 12.7.5-2 1.5-4 2-6.6 1-2 1.5-4.1 2.5-6.1l15.7-45.1a8.2 8.2 0 0 1 3-4.1c1.5-1 3.3-1.5 5.1-1.5h25.3zm0 0"/>
    <path d="M886.6 89.5c2-1.5 4.1-3.5 6.6-5.1 2-1.6 4.2-3 6.6-4a38 38 0 0 1 8.1-2.5c3-1 6.1-1 9.6-1 5.2-.1 10.4 1 15.2 3 4.3 1.8 8.1 4.6 11.1 8.1 3.2 3.7 5.7 8 7.1 12.7 1.5 5.1 2 10.1 2 16.2v66.8h-31.4v-66.8c0-5.1-1-9.1-3.5-12.2-2.5-3-5.6-4.6-10.6-4.6-3.4.1-6.6 1-9.6 2.5s-5.6 3.5-8.6 5.6v75.4h-31.4V78.4H877c4.1 0 6.6 1.5 8.1 5.1l1.5 6zm0 0M817.7 140.7c-6.6.5-11.6 1-15.7 1.5-3.3.8-6.5 1.8-9.6 3-2 1.5-4.1 2.5-5.1 4.6-.6 1.6-1 3.3-1 5.1 0 3.5 1 6.1 3 7.6 2.7 1.4 5.6 2.1 8.6 2 3.6-.1 7.2-.8 10.6-2 3-1.5 6.1-4 9.1-7.1v-14.7zM761 93.1a78.6 78.6 0 0 1 21.2-12.7c8-2.7 16.4-4 24.8-4.1a41.2 41.2 0 0 1 30.4 11.6c3.5 3.5 6.1 8.1 8.1 13.2 1.7 5.4 2.5 11 2.5 16.7v65.8h-14.2c-3 0-5.1-.5-6.6-1.5-1.5-.5-3-2.5-4.1-5.1l-2-5.6c-3 2-5.6 4.1-7.6 5.6a32.8 32.8 0 0 1-16.2 7.1c-3.2.6-6.4 1-9.6 1-4.5.1-8.9-.6-13.2-2-4.1-1-7.1-3-10.1-5.6a28 28 0 0 1-6.1-9.1 31 31 0 0 1-2-12.2 24.5 24.5 0 0 1 12.6-22.2 49.9 49.9 0 0 1 18.8-8.1 116 116 0 0 1 29.9-3.5v-4.6c0-6.1-1.5-10.6-4-13.2-2.5-3-6.1-4.6-10.6-4.6-3.1-.1-6.2.4-9.1 1.5-2.3.5-4.5 1.4-6.6 2.5-1.5 1-3.5 2-5.1 3-2.1.6-4.4 1-6.6 1-1.8 0-3.6-.5-5.1-1.5-1.6-1.1-3-2.5-4-4.1l-5.5-9.3zm0 0M685.6 154.9c2.5 2.5 5.1 4.6 7.6 5.6 2.9 1 6 1.5 9.1 1.5 2.6 0 5.2-.5 7.6-1.5 2.5-1.4 4.8-3.3 6.6-5.6a42 42 0 0 0 4.1-10.1c1.1-4.8 1.6-9.7 1.5-14.7 0-4.7-.4-9.5-1-14.2-1-3.6-2-6.6-3.5-9.1-1.5-2-3-4.1-5.1-5.1a17 17 0 0 0-7.1-1.5c-3.9-.1-7.7.8-11.1 2.5a41.5 41.5 0 0 0-8.6 7.6l-.1 44.6zm-2.1-63.3a58 58 0 0 1 14.2-11.1 43.6 43.6 0 0 1 18.8-4.1 31 31 0 0 1 15.2 3.5c4.7 2.7 8.9 6.3 12.1 10.6a42.4 42.4 0 0 1 7.6 16.7 79.8 79.8 0 0 1 3 22.8 57.7 57.7 0 0 1-12.7 39.5 41 41 0 0 1-46.1 13.1 40 40 0 0 1-10.1-6.1v40h-31.4V78.4h19.7c3.6 0 6.1 1.5 7.6 5.1l2.1 8.1zm0 0M493.7 183.7V78.4h19.2c4.1 0 6.6 1.5 7.6 5.1l2 6.1c1.5-2 3.5-3.5 5.1-5.1 1.9-1.5 3.9-2.9 6.1-4.1 2.3-1 4.7-1.8 7.1-2.5 3-1 5.6-1 8.6-1 6.6 0 11.6 1.5 15.7 5.1a30 30 0 0 1 9.6 12.7c1.5-3 4-5.6 6.6-8.1a32.4 32.4 0 0 1 17.2-8.6c3.5-1 6.6-1 10.1-1 5.3 0 10.6.8 15.7 2.5 4.6 2 8.6 4.6 11.6 8.1 3.6 3 5.6 7.6 7.6 12.2 1.5 5.1 2 10.6 2 17.2v66.8h-31.4v-66.9c0-11.1-4.6-16.7-13.7-16.7-4.6 0-8.1 1.5-10.6 4.6-3 2.5-4.6 6.6-4.6 12.2v66.8h-31.4V117c0-6.1-1-10.6-3.5-12.7-2-2.5-5.6-4.1-10.1-4.1-3 0-5.6 1-8.1 2a35.5 35.5 0 0 0-7.1 5.1v76.5h-31.3zm0 0M434.9 76.9c8.1 0 15.2 1 21.8 3.6a45.8 45.8 0 0 1 27.8 27.8 60.7 60.7 0 0 1 4 22.3c.1 7.8-1.3 15.5-4 22.8a48 48 0 0 1-27.8 27.8 60.4 60.4 0 0 1-43.5 0 49 49 0 0 1-17.2-10.6 49.9 49.9 0 0 1-11.1-17.2 64.3 64.3 0 0 1-3.5-22.8c0-8.1 1-15.7 3.5-22.3s6.6-12.1 11.1-17.2a54.1 54.1 0 0 1 38.9-14.2zm0 85c7.1 0 12.7-2.5 15.7-7.6a42 42 0 0 0 5.6-23.3c0-10.6-2-18.2-5.6-23.3-3-5.1-8.6-7.6-15.7-7.6-7.6 0-12.7 2.5-16.2 7.6s-5.1 12.7-5.1 23.3c0 10.1 1.5 18.2 5.1 23.3 3.6 5.1 8.7 7.6 16.2 7.6zm0 0"/>
    <path d="M364.6 145.2c.9-.1 1.8.1 2.5.5l2.5 1.5 13.2 14.2a51.2 51.2 0 0 1-22.3 17.7c-8.6 4-19.2 6.1-31.4 6.1-11.6 0-21.8-2-30.4-5.6a62 62 0 0 1-22.8-16.2 75.3 75.3 0 0 1-14.2-23.8c-3.3-9.6-5-19.7-5.1-29.9a81.1 81.1 0 0 1 5.6-30.4 63 63 0 0 1 15.2-23.8c6.4-7 14.4-12.3 23.2-15.7a82.7 82.7 0 0 1 59.3 0c4.1 1.5 8 3.6 11.6 6.1 3.5 2.5 7.1 5.1 9.6 8.1l-11.6 15.2a6 6 0 0 1-2.5 2.5 6 6 0 0 1-4 1.5c-1.2 0-2.5-.4-3.6-1-1-.5-2.5-1-3.5-2a90 90 0 0 1-4.1-2.5c-1.5-1-3-1.5-5.1-2.5-2-.5-4.6-1.5-7.1-2s-5.6-.5-9.1-.5c-5.4-.1-10.7.9-15.7 3-4.8 1.8-9 5-12.2 9.1a46.4 46.4 0 0 0-8.1 14.7c-2 6.1-2.5 12.7-2.5 20.2a59 59 0 0 0 3 19.8 44 44 0 0 0 8.1 15.2 36.4 36.4 0 0 0 27.8 12.1 49 49 0 0 0 8.6-.5c2.4 0 4.9-.5 7.1-1.5a23 23 0 0 0 6.1-2.5l6.1-4.6c.7-.8 1.5-1.3 2.5-1.5 1.1-.5 2.2-.9 3.3-1zm0 0"/>
  </g>
  <g id="icon">
    <path id="icon-circle" fill="#217a2b" d="M118.5.4A118.7 118.7 0 0 0 0 118.9 118.6 118.6 0 1 0 118.5.4zm0 0"/>
    <path id="icon-star" fill="#f9f9fa" d="M118.5 38.9l18.2 57.2 60.3-.5-49.1 34.9 19.2 57.2-48.6-35.4-48.6 35.4 19.2-57.2L40 95.6l60.3.5 18.2-57.2zm0 0"/>
  </g>
</svg>