<?xml version="1.0" standalone="no"?>
<!DOCTYPE svg PUBLIC "-//W3C//DTD SVG 20010904//EN"
 "http://www.w3.org/TR/2001/REC-SVG-20010904/DTD/svg10.dtd">
<svg version="1.0" xmlns="http://www.w3.org/2000/svg"
 width="512.000000pt" height="512.000000pt" viewBox="0 0 512.000000 512.000000"
 preserveAspectRatio="xMidYMid meet">
<metadata>
Created by potrace 1.11, written by Peter Selinger 2001-2013
</metadata>
<g transform="translate(0.000000,512.000000) scale(0.100000,-0.100000)"
fill="#000000" stroke="none">
<path d="M3601 5105 c-384 -68 -690 -318 -886 -727 -49 -103 -135 -340 -135
-374 0 -24 -18 -16 -78 33 -272 222 -606 338 -877 304 -373 -45 -636 -295
-737 -698 -32 -125 -31 -382 0 -530 98 -456 461 -984 922 -1341 47 -36 89 -69
93 -72 4 -4 -14 -15 -40 -25 -366 -137 -764 -407 -939 -638 -66 -87 -121 -209
-137 -302 l-13 -77 -189 -75 c-105 -40 -249 -97 -322 -126 -73 -28 -130 -53
-128 -55 2 -2 160 6 351 19 268 17 349 20 352 11 9 -29 87 -116 145 -161 150
-120 381 -204 682 -247 165 -23 575 -23 769 0 550 66 1046 227 1454 470 59 36
122 76 141 90 30 22 40 24 95 19 120 -11 258 25 383 98 72 43 207 175 258 254
90 137 143 306 152 484 5 97 10 120 29 149 42 62 64 137 64 221 0 121 -20 174
-96 248 -62 61 -64 64 -64 114 0 111 -30 247 -81 371 -21 52 -26 75 -19 88 6
10 10 34 10 53 0 82 -109 121 -170 61 -19 -19 -25 -35 -25 -69 0 -63 34 -97
101 -99 l49 -1 32 -87 c35 -93 63 -231 63 -308 l0 -47 -77 -5 c-43 -2 -91 -11
-106 -20 -27 -14 -34 -12 -109 18 -57 23 -85 40 -98 61 -27 43 -70 80 -121
102 -45 20 -47 22 -39 54 4 17 37 106 73 197 144 367 245 743 281 1055 19 167
20 445 2 577 -35 245 -108 445 -221 597 -43 59 -156 168 -218 210 -158 108
-390 158 -576 126z m-346 -231 c-11 -8 -29 -22 -40 -30 -18 -13 -9 -14 95 -9
63 3 285 8 493 12 l377 6 -17 21 c-40 45 42 -22 98 -80 133 -141 210 -306 262
-559 19 -96 22 -140 21 -350 0 -261 -10 -355 -66 -610 -56 -262 -213 -741
-229 -699 -4 10 -21 64 -39 120 -18 60 -52 135 -82 185 -45 77 -49 87 -39 115
14 39 14 57 -1 89 -27 59 -112 73 -159 26 -41 -42 -41 -101 1 -143 26 -26 36
-29 72 -26 40 4 42 3 76 -51 67 -105 120 -248 137 -372 6 -38 1 -58 -26 -123
-29 -69 -37 -80 -68 -93 -127 -50 -225 -158 -247 -273 -4 -15 -23 -45 -45 -66
l-38 -37 -10 24 c-6 13 -33 86 -61 161 -84 229 -176 442 -285 663 -218 443
-431 764 -694 1046 l-99 105 35 115 c65 216 125 347 224 494 86 128 207 251
324 328 42 29 63 36 30 11z m-426 -1284 c259 -311 499 -728 714 -1245 72 -172
161 -414 156 -420 -3 -2 -34 1 -70 7 -90 17 -605 17 -739 0 -257 -32 -555 -95
-775 -166 l-110 -36 -60 42 c-242 168 -514 451 -688 715 -193 293 -282 522
-306 785 -17 185 10 372 73 509 14 30 23 42 19 26 -4 -20 -2 -26 8 -22 8 2
273 9 589 15 316 5 646 13 733 17 156 6 157 6 157 -15 0 -19 6 -22 39 -22 47
0 56 16 27 50 -11 14 17 -11 63 -55 45 -44 122 -127 170 -185z m1413 -1434
c83 -35 131 -121 131 -232 -1 -120 -61 -222 -158 -270 -46 -22 -65 -26 -115
-22 -75 5 -123 40 -163 119 -26 49 -28 61 -25 134 3 56 11 92 26 122 67 129
197 193 304 149z m264 -62 c22 -9 41 -18 43 -19 2 -2 -13 -20 -32 -40 l-35
-36 -6 38 c-4 21 -9 46 -12 56 -6 21 -6 21 42 1z m295 -127 c93 -49 138 -179
105 -301 -64 -235 -327 -293 -432 -96 -28 51 -26 189 2 251 65 140 211 206
325 146z m-911 -199 c47 -101 139 -162 245 -163 75 0 175 45 229 105 l36 40 0
-40 c0 -97 81 -223 168 -262 84 -38 208 -21 291 39 l24 17 -6 -104 c-6 -118
-30 -209 -82 -319 -100 -210 -287 -375 -481 -425 -87 -23 -226 -21 -305 4
-132 40 -238 124 -314 245 -71 114 -98 207 -103 359 -5 149 7 233 49 350 37
102 94 198 161 272 l53 57 6 -64 c4 -36 17 -86 29 -111z m-336 107 c65 -7 120
-16 123 -19 3 -2 -6 -20 -20 -38 -14 -18 -44 -69 -66 -113 -172 -345 -119
-743 129 -968 34 -30 88 -68 121 -84 32 -15 59 -30 59 -33 0 -7 -158 -100
-237 -139 l-62 -31 -46 85 c-198 362 -334 890 -335 1293 l0 62 108 0 c59 0
160 -7 226 -15z m-650 -154 c18 -396 107 -776 266 -1148 28 -65 69 -151 91
-191 21 -41 39 -77 39 -82 0 -15 -435 -140 -489 -140 -27 0 -163 255 -244 460
-90 226 -154 492 -182 752 -16 159 -20 384 -7 392 24 14 432 93 493 95 l26 1
7 -139z m-910 -127 c3 -26 6 -72 6 -103 0 -83 28 -309 56 -455 51 -263 150
-553 270 -796 40 -80 70 -147 67 -150 -2 -3 -133 -5 -290 -5 l-286 0 -53 105
c-133 261 -236 591 -273 875 -17 129 -20 159 -22 246 l-2 83 34 23 c73 50 438
221 475 223 6 0 14 -21 18 -46z m-852 -597 c33 -229 98 -477 184 -696 24 -63
43 -115 41 -117 -5 -5 -101 33 -161 63 -134 68 -233 159 -283 261 -25 51 -28
68 -28 157 0 115 21 183 84 279 37 57 132 174 141 175 3 1 13 -54 22 -122z"/>
<path d="M4125 1976 c-53 -56 -67 -164 -25 -186 30 -16 77 31 95 95 18 60 12
101 -17 116 -16 9 -25 5 -53 -25z"/>
<path d="M4667 1802 c-37 -41 -58 -131 -41 -176 14 -37 73 -8 101 49 18 35 24
91 13 119 -11 31 -48 35 -73 8z"/>
<path d="M3788 1280 c-17 -39 -38 -59 -83 -83 -24 -13 -26 -16 -10 -17 11 0
32 6 47 14 27 14 27 14 53 -42 115 -250 339 -323 637 -206 34 13 62 23 63 21
1 -1 12 -19 24 -39 12 -21 27 -38 32 -38 5 0 3 10 -5 23 -22 33 -30 100 -16
127 10 18 9 21 -2 18 -11 -4 -31 -33 -41 -61 -4 -12 -198 11 -296 35 -141 34
-304 108 -377 172 -23 19 -25 25 -15 45 7 12 11 32 9 44 -4 19 -6 18 -20 -13z"/>
</g>
</svg>
